<?xml version="1.0" encoding="utf-8"?>
<!-- Generator: Adobe Illustrator 16.0.0, SVG Export Plug-In . SVG Version: 6.00 Build 0)  -->
<!DOCTYPE svg PUBLIC "-//W3C//DTD SVG 1.1//EN" "http://www.w3.org/Graphics/SVG/1.1/DTD/svg11.dtd">
<svg version="1.1" id="Layer_1" xmlns="http://www.w3.org/2000/svg" xmlns:xlink="http://www.w3.org/1999/xlink" x="0px" y="0px"
	 width="362.074px" height="96.7px" viewBox="0 0 362.074 96.7" enable-background="new 0 0 362.074 96.7" xml:space="preserve">
<g>
	<g>
		<path fill="#87B527" d="M97.918,26.284c0,0-4.998,0-11.153,0l-3.929,0.004c-6.158,0-11.153-4.995-11.153-11.157V0.034L86.765,0
			c6.155,0,11.153,4.995,11.153,11.154V26.284z"/>
		<g>
			<path fill="#F7781E" d="M65.083,15.131V0.034V0h-8.525v39.814c0,11.114-9.045,20.161-20.16,20.161H21.135V41.299
				c0-11.118,9.043-20.163,20.161-20.163h7.998V0h-7.998C18.524,0,0,18.523,0,41.299v39.792h36.397
				c22.771,0,41.299-18.507,41.299-41.276v-7.691C70.407,29.912,65.083,23.134,65.083,15.131z"/>
		</g>
	</g>
	<g>
		<path fill="#666666" d="M102.77,80.974h-5.019v-33.46h4.952v2.342c3.346-2.007,6.602-3.011,9.77-3.011
			c4.149,0,7.048,1.138,8.7,3.413c1.472-0.892,3.379-1.683,5.722-2.375c2.342-0.691,4.405-1.037,6.19-1.037
			c4.46,0,7.461,1.194,9,3.58c1.539,2.387,2.309,6.682,2.309,12.882v17.667h-5.019V63.44c0-4.64-0.447-7.818-1.338-9.536
			c-0.893-1.717-2.789-2.577-5.688-2.577c-1.472,0-2.989,0.212-4.55,0.636c-1.562,0.425-2.767,0.836-3.614,1.238l-1.271,0.602
			c0.579,1.472,0.87,4.729,0.87,9.77v17.399h-5.019V63.708c0-4.817-0.435-8.085-1.305-9.803c-0.87-1.717-2.777-2.577-5.722-2.577
			c-1.428,0-2.889,0.212-4.383,0.636c-1.496,0.425-2.644,0.836-3.447,1.238l-1.137,0.602V80.974z"/>
		<path fill="#666666" d="M176.649,57.619V74.75c0.134,1.651,1.427,2.633,3.881,2.944l-0.201,3.948c-3.525,0-6.18-0.892-7.963-2.677
			c-4.016,1.785-8.031,2.677-12.046,2.677c-3.078,0-5.42-0.87-7.026-2.609c-1.606-1.74-2.409-4.238-2.409-7.495
			c0-3.256,0.825-5.655,2.476-7.194c1.65-1.539,4.238-2.486,7.763-2.844l10.506-1.004v-2.877c0-2.275-0.491-3.903-1.472-4.885
			c-0.982-0.98-2.32-1.472-4.015-1.472c-3.57,0-7.272,0.224-11.109,0.669l-2.074,0.201l-0.201-3.814
			c4.907-0.981,9.257-1.472,13.049-1.472c3.791,0,6.546,0.87,8.264,2.61C175.79,51.194,176.649,53.916,176.649,57.619z
			 M156.038,71.271c0,4.104,1.695,6.156,5.086,6.156c3.033,0,6.023-0.513,8.967-1.539l1.539-0.535V64.311l-9.904,0.937
			c-2.007,0.18-3.458,0.76-4.35,1.74C156.483,67.97,156.038,69.396,156.038,71.271z"/>
		<path fill="#666666" d="M190.568,80.974h-5.018v-33.46h4.951v2.342c3.613-2.007,7.07-3.011,10.373-3.011
			c4.461,0,7.461,1.205,9,3.614c1.539,2.409,2.309,6.692,2.309,12.848v17.667h-4.951V63.44c0-4.64-0.459-7.818-1.373-9.536
			c-0.914-1.717-2.865-2.577-5.855-2.577c-1.428,0-2.934,0.212-4.516,0.636c-1.584,0.425-2.801,0.836-3.648,1.238l-1.271,0.602
			V80.974z"/>
		<path fill="#666666" d="M234.064,96.7c-5.354,0-9.09-0.727-11.209-2.176c-2.119-1.45-3.178-4.093-3.178-7.93
			c0-1.83,0.4-3.312,1.205-4.45c0.803-1.138,2.162-2.419,4.082-3.848c-1.25-0.847-1.875-2.386-1.875-4.617
			c0-0.759,0.559-2.164,1.674-4.216l0.602-1.071c-3.523-1.605-5.287-4.974-5.287-10.104c0-7.629,4.172-11.443,12.516-11.443
			c2.141,0,4.125,0.224,5.955,0.669l1.004,0.201l9.904-0.268v4.283l-6.357-0.134c1.473,1.473,2.209,3.704,2.209,6.692
			c0,4.193-1.039,7.127-3.113,8.8s-5.342,2.51-9.803,2.51c-1.205,0-2.299-0.089-3.279-0.268c-0.803,1.963-1.205,3.234-1.205,3.813
			c0,1.384,0.424,2.242,1.271,2.577c0.848,0.334,3.414,0.502,7.695,0.502c4.283,0,7.361,0.669,9.236,2.007
			c1.873,1.339,2.811,3.948,2.811,7.83C248.921,93.153,243.968,96.7,234.064,96.7z M224.628,86.193c0,2.364,0.658,4.004,1.975,4.919
			c1.316,0.913,3.748,1.371,7.295,1.371s6.09-0.491,7.629-1.472c1.539-0.982,2.309-2.621,2.309-4.919s-0.559-3.78-1.674-4.45
			c-1.115-0.669-3.301-1.004-6.559-1.004l-7.227-0.334c-1.473,1.07-2.465,2.008-2.979,2.811
			C224.886,83.918,224.628,84.944,224.628,86.193z M225.097,58.288c0,2.633,0.592,4.507,1.773,5.621
			c1.182,1.115,3.135,1.673,5.855,1.673s4.662-0.558,5.822-1.673c1.16-1.114,1.74-3,1.74-5.654s-0.58-4.54-1.74-5.655
			c-1.16-1.115-3.102-1.673-5.822-1.673s-4.674,0.569-5.855,1.707S225.097,55.656,225.097,58.288z"/>
		<path fill="#666666" d="M291.148,58.154c0,8.254-1.316,14.231-3.949,17.935s-7.418,5.554-14.354,5.554
			c-6.938,0-11.723-1.896-14.355-5.688s-3.947-9.759-3.947-17.901c0-8.141,1.338-14.187,4.016-18.135
			c2.676-3.948,7.428-5.922,14.252-5.922c6.826,0,11.588,1.963,14.289,5.889C289.796,43.811,291.148,49.901,291.148,58.154z
			 M259.83,58.021c0,6.781,0.891,11.655,2.676,14.622c1.783,2.967,5.23,4.45,10.34,4.45c5.107,0,8.541-1.45,10.305-4.351
			c1.762-2.899,2.643-7.763,2.643-14.588c0-6.826-0.914-11.8-2.742-14.923c-1.83-3.122-5.254-4.685-10.273-4.685
			c-5.018,0-8.432,1.551-10.238,4.651C260.732,46.299,259.83,51.239,259.83,58.021z"/>
		<path fill="#666666" d="M326.613,80.974V60.027h-23.555v20.946h-5.152V34.665h5.152V55.41h23.555V34.665h5.086v46.309H326.613z"/>
		<path fill="#666666" d="M339.621,35.628v-1.716h8.67v1.716h-3.348v10.161h-1.941V35.628H339.621z"/>
		<path fill="#666666" d="M350.058,45.789V33.912h3.348l2.652,9.276l2.652-9.276h3.363v11.877h-1.941v-9.745h-0.26l-2.809,9.259
			h-2.012l-2.809-9.259h-0.26v9.745H350.058z"/>
	</g>
</g>
</svg>
